# This file uses centimeters as units for non-parametric coordinates.

mtllib table2.mtl
g default
v -1.976932 1.021882 -5.348997
v -1.976932 1.024503 -5.348997
v -3.102176 1.024503 -5.348997
v -3.102176 1.021882 -5.348997
v -1.976932 1.021882 -6.474241
v -1.976932 1.024503 -6.474241
v -3.102176 1.024503 -6.474241
v -3.102176 1.021882 -6.474241
v -3.372825 0.914109 -5.078349
v -3.262515 0.914109 -5.078349
v -3.262515 1.021882 -5.078349
v -3.372825 1.021882 -5.078349
v -3.372825 0.914109 -5.188658
v -3.372825 1.021882 -5.188658
v -3.372825 0.403710 -5.078349
v -3.262515 0.403710 -5.078349
v -1.816593 0.914109 -5.078349
v -1.816593 1.021882 -5.078349
v -3.262515 1.021882 -5.188658
v -3.372825 0.914109 -6.634580
v -3.372825 1.021882 -6.634580
v -3.372825 0.403710 -5.188658
v -3.262515 0.403710 -5.188658
v -3.262515 0.914109 -5.188658
v -3.262515 0.914109 -6.744890
v -1.816593 0.914109 -6.744890
v -1.816593 0.914109 -6.634580
v -1.706283 0.914109 -6.634580
v -1.706283 0.914109 -5.188658
v -1.816593 0.914109 -5.188658
v -3.262515 0.914109 -6.634580
v -1.706283 0.914109 -5.078349
v -1.706283 1.021882 -5.078349
v -1.816593 1.021882 -5.188658
v -1.706283 1.021882 -5.188658
v -1.706283 1.021882 -6.634580
v -1.816593 1.021882 -6.634580
v -1.816593 1.021882 -6.744890
v -3.262515 1.021882 -6.744890
v -3.262515 1.021882 -6.634580
v -3.372825 0.914109 -6.744890
v -3.372825 1.021882 -6.744890
v -3.262515 0.403710 -6.634580
v -3.262515 0.403710 -6.744890
v -1.816593 0.403710 -6.744890
v -1.816593 0.403710 -6.634580
v -1.706283 0.403710 -6.634580
v -1.706283 0.403710 -5.188658
v -1.816593 0.403710 -5.188658
v -1.816593 0.403710 -5.078349
v -3.372825 0.403710 -6.634580
v -1.706283 0.403710 -5.078349
v -1.706283 1.021882 -6.744890
v -3.372825 0.403710 -6.744890
v -1.706283 0.914109 -6.744890
v -1.706283 0.403710 -6.744890
vt 0.839516 0.190179
vt 0.840352 0.190179
vt 0.840352 0.549112
vt 0.839516 0.549112
vt 0.847114 0.190179
vt 0.847949 0.190179
vt 0.847949 0.549111
vt 0.847114 0.549111
vt 0.364677 0.925547
vt 0.698427 0.038036
vt 0.732805 0.038036
vt 0.732805 0.073223
vt 0.535619 0.073223
vt 0.535619 0.038036
vt 0.698427 0.076072
vt 0.825900 0.891169
vt 0.698427 0.111258
vt 0.732805 0.111258
vt 0.535619 0.111258
vt 0.535619 0.076072
vt 0.577405 0.314951
vt 0.577405 0.152143
vt 0.612592 0.152143
vt 0.612592 0.314951
vt 0.660977 0.314951
vt 0.660977 0.152143
vt 0.696163 0.152143
vt 0.696163 0.314951
vt 0.535619 0.314951
vt 0.535619 0.152143
vt 0.570806 0.152143
vt 0.570806 0.314951
vt 0.899759 0.000000
vt 0.899759 0.111258
vt 0.934137 0.111258
vt 0.461223 0.965623
vt 0.899759 0.076072
vt 0.934137 0.076072
vt 0.899759 0.035187
vt 0.934137 0.035187
vt 0.736951 0.111258
vt 0.736951 0.076072
vt 0.736951 0.035187
vt 0.736951 0.000000
vt 0.938283 0.162808
vt 0.938283 0.000000
vt 0.973469 0.000000
vt 0.973469 0.162808
vt 0.000000 0.534445
vt 0.358932 0.534445
vt 0.358932 0.893378
vt 0.000000 0.893378
vt 0.364677 0.623626
vt 0.399863 0.623626
vt 0.399863 0.658813
vt 0.364677 0.888320
vt 0.861086 0.623626
vt 0.861086 0.658813
vt 0.809941 0.709958
vt 0.415822 0.801988
vt 0.451009 0.534445
vt 0.399863 0.585591
vt 0.364677 0.585591
vt 0.896273 0.623626
vt 0.896273 0.658813
vt 0.825900 0.712807
vt 0.861086 0.585591
vt 0.774755 0.799139
vt 0.861086 0.620777
vt 0.399863 0.620777
vt 0.364677 0.620777
vt 0.896273 0.620777
vt 0.869906 0.152143
vt 0.905093 0.152143
vt 0.905093 0.187330
vt 0.869906 0.187330
vt 0.035187 0.000000
vt 0.496410 0.000000
vt 0.496410 0.035187
vt 0.531596 0.035187
vt 0.531596 0.496410
vt 0.496410 0.496410
vt 0.496410 0.531596
vt 0.035187 0.531596
vt 0.035187 0.496410
vt 0.000000 0.496410
vt 0.000000 0.035187
vt 0.035187 0.035187
vt 0.863307 0.152143
vt 0.863307 0.187330
vt 0.828120 0.187330
vt 0.828120 0.152143
vt 0.946878 0.200844
vt 0.911692 0.200844
vt 0.911692 0.165657
vt 0.946878 0.165657
vt 0.953478 0.200844
vt 0.953478 0.165657
vt 0.988664 0.165657
vt 0.988664 0.200844
vt 0.854711 0.190179
vt 0.855547 0.190179
vt 0.855547 0.549111
vt 0.854711 0.549111
vt 0.832755 0.549111
vt 0.831919 0.549111
vt 0.831919 0.190179
vt 0.832755 0.190179
vt 0.698427 0.149294
vt 0.698427 0.114107
vt 0.928465 0.928396
vt 0.732805 0.149294
vt 0.535619 0.149294
vt 0.535619 0.114107
vt 0.467242 0.962774
vt 0.934137 0.073223
vt 0.899759 0.038036
vt 0.934137 0.038036
vt 0.736951 0.073223
vt 0.736951 0.038036
vt 0.779735 0.152143
vt 0.779735 0.314951
vt 0.744548 0.314951
vt 0.744548 0.152143
vt 0.535619 0.000000
vt 0.000000 0.962774
vt 0.771328 0.149294
vt 0.569996 0.000000
vt 0.736951 0.114107
vt 0.771328 0.114107
vt 0.535619 0.035187
vt 0.569996 0.035187
vt 0.934136 0.114107
vt 0.934136 0.149294
vt 0.732805 0.000000
vt 0.732805 0.035187
vt 0.619191 0.314951
vt 0.619191 0.152143
vt 0.654377 0.152143
vt 0.654377 0.314951
vt 0.821521 0.152143
vt 0.821521 0.314951
vt 0.786334 0.314951
vt 0.786334 0.152143
vt 0.702762 0.314951
vt 0.702762 0.152143
vt 0.737949 0.152143
vt 0.737949 0.314951
vt 0.809941 0.534445
vt 0.825900 0.747994
vt 0.451009 0.709958
vt 0.364677 0.853133
vt 0.825900 0.853134
vt 0.825900 0.888320
vt 0.415822 0.799139
vt 0.364677 0.747994
vt 0.774755 0.801988
vt 0.896273 0.585591
vt 0.364677 0.712807
vt 0.364677 0.658813
vt 0.934137 0.000000
vt 0.461223 1.000000
vt 0.000000 1.000000
vt 0.000000 0.965623
vt 0.461223 0.928396
vt 0.461223 0.962774
vt 0.736951 0.149294
vt 0.000000 0.928396
vt 0.732805 0.076072
vt 0.825900 0.925547
vt 0.364677 0.891169
vt 0.698427 0.073223
vt 0.467242 0.928396
vt 0.732805 0.114107
vt 0.899759 0.073223
vt 0.928465 0.962774
vn 0.000000 0.000000 1.000000
vn 0.000000 0.000000 1.000000
vn 0.000000 0.000000 1.000000
vn 0.000000 0.000000 1.000000
vn 1.000000 0.000000 0.000000
vn 1.000000 0.000000 0.000000
vn 1.000000 0.000000 0.000000
vn 1.000000 0.000000 0.000000
vn 0.000000 1.000000 0.000000
vn 0.000000 1.000000 0.000000
vn 0.000000 1.000000 0.000000
vn 0.000000 1.000000 0.000000
vn -1.000000 0.000000 0.000000
vn -1.000000 0.000000 0.000000
vn -1.000000 0.000000 0.000000
vn -1.000000 0.000000 0.000000
vn 0.000000 0.000000 -1.000000
vn 0.000000 0.000000 -1.000000
vn 0.000000 0.000000 -1.000000
vn 0.000000 0.000000 -1.000000
vn 0.000000 0.000000 1.000000
vn 0.000000 0.000000 1.000000
vn 0.000000 0.000000 1.000000
vn 0.000000 0.000000 1.000000
vn -1.000000 0.000000 0.000000
vn -1.000000 0.000000 0.000000
vn -1.000000 0.000000 0.000000
vn -1.000000 0.000000 0.000000
vn 0.000000 0.000000 1.000000
vn 0.000000 0.000000 1.000000
vn 0.000000 0.000000 1.000000
vn 0.000000 0.000000 1.000000
vn 0.000000 1.000000 0.000000
vn 0.000000 1.000000 0.000000
vn 0.000000 1.000000 0.000000
vn 0.000000 1.000000 0.000000
vn -1.000000 0.000000 0.000000
vn -1.000000 0.000000 0.000000
vn -1.000000 0.000000 0.000000
vn -1.000000 0.000000 0.000000
vn 0.000000 -1.000000 0.000000
vn 0.000000 -1.000000 0.000000
vn 0.000000 -1.000000 0.000000
vn 0.000000 -1.000000 0.000000
vn 1.000000 0.000000 0.000000
vn 1.000000 0.000000 0.000000
vn 1.000000 0.000000 0.000000
vn 1.000000 0.000000 0.000000
vn 0.000000 -1.000000 0.000000
vn 0.000000 -1.000000 0.000000
vn 0.000000 -1.000000 0.000000
vn 0.000000 -1.000000 0.000000
vn 0.000000 -1.000000 0.000000
vn 0.000000 -1.000000 0.000000
vn 0.000000 -1.000000 0.000000
vn 0.000000 -1.000000 0.000000
vn 0.000000 -1.000000 0.000000
vn 0.000000 -1.000000 0.000000
vn 0.000000 -1.000000 0.000000
vn 0.000000 -1.000000 0.000000
vn 0.000000 0.000000 1.000000
vn 0.000000 0.000000 1.000000
vn 0.000000 1.000000 0.000000
vn 0.000000 1.000000 -0.000000
vn 0.000000 1.000000 -0.000000
vn 0.000000 1.000000 -0.000000
vn 0.000000 1.000000 0.000000
vn 0.000000 1.000000 0.000000
vn 0.000000 1.000000 0.000000
vn 0.000000 1.000000 0.000000
vn 0.000000 1.000000 0.000000
vn 0.000000 1.000000 0.000000
vn -1.000000 0.000000 0.000000
vn -1.000000 0.000000 0.000000
vn 0.000000 0.000000 -1.000000
vn 0.000000 0.000000 -1.000000
vn 0.000000 0.000000 -1.000000
vn 0.000000 0.000000 -1.000000
vn 1.000000 0.000000 0.000000
vn 1.000000 0.000000 0.000000
vn 1.000000 0.000000 0.000000
vn 1.000000 0.000000 0.000000
vn 0.000000 0.000000 -1.000000
vn 0.000000 0.000000 -1.000000
vn 0.000000 0.000000 -1.000000
vn 0.000000 0.000000 -1.000000
vn -1.000000 0.000000 0.000000
vn -1.000000 0.000000 0.000000
vn -1.000000 0.000000 0.000000
vn -1.000000 0.000000 0.000000
vn 0.000000 0.000000 1.000000
vn 0.000000 0.000000 1.000000
vn 0.000000 0.000000 1.000000
vn 0.000000 0.000000 1.000000
vn 1.000000 0.000000 0.000000
vn 1.000000 0.000000 0.000000
vn 1.000000 0.000000 0.000000
vn 1.000000 0.000000 0.000000
vn 0.000000 0.000000 -1.000000
vn 0.000000 0.000000 -1.000000
vn 0.000000 0.000000 -1.000000
vn 0.000000 0.000000 -1.000000
vn -1.000000 0.000000 0.000000
vn -1.000000 0.000000 0.000000
vn -1.000000 0.000000 0.000000
vn -1.000000 0.000000 0.000000
vn 0.000000 0.000000 1.000000
vn 0.000000 0.000000 1.000000
vn 0.000000 0.000000 1.000000
vn 0.000000 0.000000 1.000000
vn 0.000000 0.000000 1.000000
vn 0.000000 0.000000 1.000000
vn 1.000000 0.000000 0.000000
vn 1.000000 0.000000 0.000000
vn 0.000000 1.000000 0.000000
vn 0.000000 1.000000 0.000000
vn 0.000000 1.000000 0.000000
vn 0.000000 1.000000 0.000000
vn 0.000000 1.000000 0.000000
vn 0.000000 1.000000 0.000000
vn 0.000000 0.000000 -1.000000
vn 0.000000 0.000000 -1.000000
vn -1.000000 0.000000 0.000000
vn -1.000000 0.000000 0.000000
vn 0.000000 -1.000000 0.000000
vn 0.000000 -1.000000 0.000000
vn 0.000000 -1.000000 0.000000
vn 0.000000 -1.000000 0.000000
vn 0.000000 0.000000 -1.000000
vn 0.000000 0.000000 -1.000000
vn 0.000000 0.000000 -1.000000
vn 0.000000 0.000000 -1.000000
vn 0.000000 0.000000 -1.000000
vn 0.000000 0.000000 -1.000000
vn 0.000000 -1.000000 0.000000
vn 0.000000 -1.000000 0.000000
vn 0.000000 -1.000000 0.000000
vn 0.000000 -1.000000 0.000000
vn 1.000000 0.000000 0.000000
vn 1.000000 0.000000 0.000000
vn 1.000000 0.000000 0.000000
vn 1.000000 0.000000 0.000000
vn 1.000000 0.000000 0.000000
vn 1.000000 0.000000 0.000000
vn 0.000000 -1.000000 0.000000
vn 0.000000 -1.000000 0.000000
vn 0.000000 -1.000000 0.000000
vn 0.000000 -1.000000 0.000000
s 1
g TABLE1
usemtl TableSG
f 1/101/1 2/102/2 4/104/3
f 4/104/3 2/102/2 3/103/4
s 2
f 5/1/5 6/2/6 1/4/7
f 1/4/7 6/2/6 2/3/8
s 3
f 3/49/9 2/50/10 7/52/11
f 7/52/11 2/50/10 6/51/12
s 4
f 4/5/13 3/6/14 8/8/15
f 8/8/15 3/6/14 7/7/16
s 5
f 8/105/17 7/106/18 5/108/19
f 5/108/19 7/106/18 6/107/20
s 6
f 9/109/21 10/110/22 12/112/23
f 12/112/23 10/110/22 11/174/24
s 7
f 13/172/25 9/10/26 14/12/27
f 14/12/27 9/10/26 12/11/28
s 6
f 9/109/21 15/113/29 10/110/22
f 10/110/22 15/113/29 16/114/30
f 10/176/22 17/115/31 11/111/24
f 11/111/24 17/115/31 18/173/32
s 8
f 12/53/33 11/54/34 14/160/35
f 14/160/35 11/54/34 19/55/36
s 7
f 20/170/37 13/9/25 21/16/38
f 21/16/38 13/9/25 14/171/27
f 13/172/25 22/13/39 9/10/26
f 9/10/26 22/13/39 15/14/40
s 9
f 22/73/41 23/74/42 15/76/43
f 15/76/43 23/74/42 16/75/44
s 10
f 10/21/45 16/22/46 24/24/47
f 24/24/47 16/22/46 23/23/48
s 11
f 25/77/49 26/78/50 31/88/51
f 26/78/50 27/79/52 31/88/51
f 28/80/53 29/81/54 27/79/52
f 29/81/54 30/82/55 27/79/52
f 27/79/52 30/82/55 31/88/51
f 17/83/56 10/84/57 30/82/55
f 10/84/57 24/85/58 30/82/55
f 13/86/59 20/87/60 24/85/58
f 20/87/60 31/88/51 24/85/58
f 30/82/55 24/85/58 31/88/51
s 6
f 17/175/31 32/117/61 18/116/32
f 18/116/32 32/117/61 33/118/62
s 8
f 38/69/63 39/70/64 37/67/65
f 37/67/65 39/70/64 5/149/66
f 39/70/64 40/62/67 5/149/66
f 5/149/66 40/62/67 8/61/68
f 11/54/34 18/57/69 19/55/36
f 19/55/36 18/57/69 4/151/70
f 18/57/69 34/58/71 4/151/70
f 34/58/71 1/59/72 4/151/70
s 7
f 41/17/73 20/15/37 42/18/74
f 42/18/74 20/15/37 21/169/38
s 17
f 24/121/75 23/122/76 13/124/77
f 13/124/77 23/122/76 22/123/78
s 18
f 31/25/79 43/26/80 25/28/81
f 25/28/81 43/26/80 44/27/82
s 19
f 39/166/83 38/126/84 25/165/85
f 25/165/85 38/126/84 26/168/86
s 20
f 26/29/87 45/30/88 27/32/89
f 27/32/89 45/30/88 46/31/90
s 21
f 27/137/91 46/138/92 28/140/93
f 28/140/93 46/138/92 47/139/94
s 22
f 29/162/95 28/163/96 35/36/97
f 35/36/97 28/163/96 36/164/98
s 23
f 29/141/99 48/142/100 30/144/101
f 30/144/101 48/142/100 49/143/102
s 24
f 30/45/103 49/46/104 17/48/105
f 17/48/105 49/46/104 50/47/106
s 25
f 20/145/107 51/146/108 31/148/109
f 31/148/109 51/146/108 43/147/110
s 6
f 17/175/31 50/119/111 32/117/61
f 32/117/61 50/119/111 52/120/112
s 22
f 32/39/113 29/33/95 33/40/114
f 33/40/114 29/33/95 35/161/97
s 8
f 18/57/69 33/64/115 34/58/71
f 34/58/71 33/64/115 35/65/116
f 36/158/117 53/72/118 37/67/65
f 37/67/65 53/72/118 38/69/63
f 39/70/64 42/71/119 40/62/67
f 40/62/67 42/71/119 21/63/120
s 19
f 42/131/121 39/125/83 41/132/122
f 41/132/122 39/125/83 25/128/85
s 7
f 41/17/73 54/19/123 20/15/37
f 20/15/37 54/19/123 51/20/124
s 27
f 44/89/125 43/90/126 54/92/127
f 54/92/127 43/90/126 51/91/128
s 19
f 25/128/85 44/135/129 41/132/122
f 41/132/122 44/135/129 54/136/130
f 38/167/84 53/129/131 26/127/86
f 26/127/86 53/129/131 55/130/132
f 55/130/132 56/133/133 26/127/86
f 26/127/86 56/133/133 45/134/134
s 28
f 47/93/135 46/94/136 56/96/137
f 56/96/137 46/94/136 45/95/138
s 22
f 28/34/96 47/41/139 55/37/140
f 55/37/140 47/41/139 56/42/141
f 28/34/96 55/37/140 36/35/98
f 36/35/98 55/37/140 53/38/142
f 32/39/113 52/43/143 29/33/95
f 29/33/95 52/43/143 48/44/144
s 30
f 50/97/145 49/98/146 52/100/147
f 52/100/147 49/98/146 48/99/148
s 8
f 21/154/120 14/56/35 40/153/67
f 40/153/67 14/56/35 8/157/68
f 14/56/35 19/152/36 8/157/68
f 19/152/36 4/60/70 8/157/68
f 35/159/116 36/66/117 34/156/71
f 34/156/71 36/66/117 1/155/72
f 36/66/117 37/150/65 1/155/72
f 37/150/65 5/68/66 1/155/72
